<svg width="1146" height="222" viewBox="0 0 1146 222" fill="none" xmlns="http://www.w3.org/2000/svg">
<path fill-rule="evenodd" clip-rule="evenodd" d="M0 84.2807L53.7478 148.921H145.121L85.9973 84.2807H0Z" fill="#D7B737"/>
<path fill-rule="evenodd" clip-rule="evenodd" d="M1.84361e-10 156.049L53.7478 220.689H145.121L85.9973 156.049H1.84361e-10Z" fill="#D7B737"/>
<path fill-rule="evenodd" clip-rule="evenodd" d="M300.311 147.117C286.504 142.926 272.312 140.13 257.949 138.77C245.391 137.122 215.982 133.255 215.982 127.585V127.135C217.561 123.745 232.236 115.282 257.562 115.282C277.017 115.282 291.619 120.324 297.475 125.316L319.457 103.127C306.264 91.8594 283.124 85.134 257.562 85.134C214.655 85.134 183.508 102.692 183.508 126.887V127.581C183.508 138.018 188.35 152.178 211.404 160.366C225.095 164.502 239.162 167.264 253.398 168.612C267.029 170.404 295.195 174.112 295.899 180.019C294.255 183.428 279.603 191.844 254.331 191.844C234.86 191.844 221.176 186.845 215.375 182.567C214.488 181.949 213.692 181.21 213.01 180.372L186.446 197.713C188.937 200.933 191.874 203.78 195.169 206.168C208.799 216.225 230.363 221.988 254.327 221.988C297.239 221.988 328.385 204.43 328.385 180.24C328.385 169.702 323.513 155.398 300.311 147.113V147.117ZM448.687 84.2846H420.331L333.029 220.608H371.61L391.251 189.94H477.771L497.407 220.608H535.992L448.687 84.2846ZM412.099 157.395L434.507 122.403L456.915 157.395H412.099ZM585.746 220.608V85.1379H553.272V220.608H585.746ZM771.967 85.1379V182.831L652.056 85.4249H616.645V220.534H649.115V124.924L766.963 220.662H804.441V85.1379H771.967ZM824.902 85.1379V117.683H887.037V220.658H919.511V117.683H987.462V85.1379H824.902ZM1117.91 147.117C1104.1 142.924 1089.91 140.127 1075.55 138.766C1062.99 137.118 1033.58 133.251 1033.58 127.581V127.135C1035.16 123.745 1049.84 115.282 1075.16 115.282C1094.62 115.282 1109.22 120.324 1115.07 125.316L1137.06 103.127C1123.87 91.8594 1100.72 85.134 1075.16 85.134C1032.25 85.134 1001.11 102.692 1001.11 126.887V127.581C1001.11 138.018 1005.95 152.178 1029 160.366C1042.69 164.502 1056.76 167.264 1071 168.612C1084.63 170.404 1112.79 174.112 1113.5 180.019C1111.85 183.428 1097.2 191.844 1071.93 191.844C1052.46 191.844 1038.78 186.845 1032.97 182.567C1032.09 181.951 1031.29 181.212 1030.61 180.372L1004.06 197.724C1006.55 200.945 1009.49 203.793 1012.78 206.179C1026.42 216.237 1047.98 222 1071.94 222C1114.85 222 1146 204.442 1146 180.251C1146 169.713 1141.13 155.409 1117.93 147.125L1117.91 147.117Z" fill="white"/>
<path fill-rule="evenodd" clip-rule="evenodd" d="M456.253 0V31.451C456.253 37.2999 447.665 43.8159 435.354 43.8159C423.044 43.8159 414.456 37.2999 414.456 31.451V0H400.814V31.451C400.814 46.0499 415.992 57.4877 435.37 57.4877C454.747 57.4877 469.926 46.0499 469.926 31.451V0H456.253ZM594.102 13.8967V0.224891H538.338V57.4877H551.976V35.6554H590.46V21.9874H551.976V13.8812H594.102V13.8967ZM714.883 0V31.451C714.883 37.2999 706.296 43.8159 693.985 43.8159C681.674 43.8159 673.086 37.2999 673.086 31.451V0H659.444V31.451C659.444 46.0499 674.623 57.4877 694 57.4877C713.378 57.4877 728.556 46.0499 728.556 31.451V0H714.883Z" fill="white"/>
</svg>
