<svg width="189" height="146" viewBox="0 0 189 146" fill="none" xmlns="http://www.w3.org/2000/svg">
<g clip-path="url(#clip0_182_61)">
<path d="M189 26.5696V26.8195C188.837 27.9607 188.328 28.9947 187.946 30.0689C187.362 31.7263 186.755 33.3793 186.158 35.0367C184.568 39.4659 182.976 43.8951 181.362 48.3184C181.177 48.8198 181.259 49.1367 181.645 49.5265C184.336 52.2358 185.949 55.4629 186.43 59.1794C186.933 63.0745 186.447 66.8625 184.95 70.518C184.331 72.0252 183.503 73.4222 182.509 74.73C180.044 77.9571 177.591 81.1945 175.162 84.4499C173.017 87.3318 170.175 89.3686 166.802 90.7478C164.524 91.6821 162.134 92.2058 159.663 92.3829C156.47 92.6061 153.311 92.3993 150.186 91.7104C148.989 91.4426 147.809 91.1212 146.641 90.7478C146.362 90.6585 146.079 90.6198 145.79 90.6198H136.765C136.256 90.6198 136.233 90.6481 136.273 91.148C136.51 93.7636 136.319 96.339 135.492 98.8534C135.162 99.8487 134.723 100.801 134.219 101.725C133.987 102.153 133.993 102.164 134.421 102.393C135.232 102.832 135.654 103.512 135.741 104.385C136.019 107.111 135.73 109.799 134.995 112.442C133.994 116.024 132.109 119.107 129.21 121.566C126.809 123.597 123.998 124.899 120.919 125.683C120.82 125.705 120.723 125.738 120.624 125.756C120.324 125.807 120.259 125.957 120.345 126.235C120.641 127.165 120.924 128.099 121.213 129.034C121.317 129.367 121.422 129.702 121.509 130.035C121.636 130.524 121.555 130.669 121.052 130.786C119.756 131.075 118.472 131.398 117.176 131.698C114.954 132.21 112.739 132.738 110.518 133.256C109.002 133.607 107.498 134.024 105.965 134.302C105.236 134.436 104.808 134.913 104.379 135.393C103.558 136.311 102.637 137.139 101.776 138.013C100.665 139.142 99.5418 140.267 98.4095 141.378C96.9863 142.78 95.6095 144.227 94.1692 145.612C94.0254 145.751 93.88 145.885 93.7175 146.002H93.6309C93.0987 145.718 92.7337 145.263 92.3345 144.851C92.0978 144.605 91.872 144.355 91.6291 144.116C89.4603 142.034 87.3657 139.881 85.2309 137.767C84.2764 136.821 83.2585 135.925 82.3906 134.902C82.171 134.646 81.8925 134.489 81.5568 134.412C77.8317 133.549 74.1051 132.682 70.38 131.825C68.963 131.496 67.5398 131.179 66.1228 130.829C65.6014 130.701 65.5736 130.64 65.7298 130.129C66.1119 128.877 66.494 127.619 66.8746 126.367C67.0184 125.888 67.0014 125.878 66.4925 125.75C63.5765 125.005 60.8863 123.825 58.5272 121.999C56.1959 120.193 54.4834 117.933 53.2628 115.313C52.2155 113.065 51.6834 110.695 51.4467 108.258C51.3245 107.029 51.3137 105.788 51.4405 104.558C51.5395 103.595 51.9789 102.827 52.8745 102.36C53.2164 102.182 53.1344 101.987 52.9968 101.749C51.9495 99.941 51.3369 97.9934 51.0244 95.9507C50.6423 93.4913 50.7877 91.0379 51.3245 88.6172C51.521 87.7275 51.4467 86.8423 51.3941 85.963C51.3477 85.173 51.3307 84.3829 51.2781 83.5929C51.2255 82.8475 51.1791 82.0962 51.1621 81.3344C50.2014 83.1317 48.9979 84.7564 47.5112 86.1802C45.1444 88.4447 42.3567 90.0634 39.2148 91.1316C36.8433 91.938 34.396 92.3948 31.8853 92.5674C27.2104 92.8902 22.6577 92.3219 18.1978 90.9546C15.8665 90.2375 13.628 89.3076 11.4066 88.3122C10.6022 87.9507 10.0406 87.4448 9.51467 86.7932C7.24681 83.9782 4.96195 81.1797 2.68791 78.3692C2.57189 78.2249 2.46205 78.0806 2.34139 77.9407C2.10934 77.6729 2.05211 77.3962 2.12172 77.051C2.54404 74.9085 2.96017 72.7616 3.37631 70.6132C4.26117 66.0457 5.14139 61.4825 6.04328 56.9209C6.11908 56.5311 5.96748 56.2484 5.78339 55.9419C4.60924 54.0107 3.47531 52.0528 2.27178 50.1395C1.56017 49.0043 1.07442 47.7976 0.738732 46.5226C0.362819 45.1032 0.0905544 43.6734 0.0843666 42.199C0.0441455 41.1248 0.0549742 40.0566 0.0843666 38.9824C0.15398 36.5676 0.743373 34.2705 1.81387 32.0998C4.20857 27.2376 8.15488 24.0105 13.3604 22.1567C15.7907 21.2893 18.3184 20.8489 20.8988 20.6927C21.7326 20.6421 22.5649 20.5424 23.4033 20.532C23.6988 20.5261 23.8488 20.3981 23.9123 20.1258C24.0051 19.7301 24.0855 19.3358 24.1907 18.946C24.3346 18.4223 24.4738 18.3286 25.0245 18.4119C26.8407 18.6842 28.6522 18.9564 30.4683 19.2242C34.0433 19.7524 37.6122 20.2984 41.1888 20.8162C41.6637 20.8831 41.6637 20.8831 41.6173 20.4428C41.5307 19.6527 41.4146 18.8686 41.3388 18.0786C41.3094 17.7721 41.1424 17.5341 40.9505 17.299C40.3426 16.5596 39.747 15.8023 39.1344 15.0628C38.8915 14.7682 38.7987 14.4558 38.8389 14.0943C39.0586 12.2033 39.2551 10.3048 39.4577 8.4138C39.6248 6.85011 39.8042 5.29237 39.9605 3.72868C40.0301 3.0056 40.1167 2.90592 40.8624 2.81665C45.1382 2.31526 49.4186 1.82577 53.6944 1.31991C55.9623 1.0521 58.0337 1.49845 59.9024 2.77202C60.1159 2.91633 60.3185 3.07255 60.5104 3.24514C60.7239 3.43409 60.8229 3.41772 60.8987 3.1276C61.1013 2.34353 61.321 1.56391 61.5406 0.790251C61.7031 0.223394 61.7495 0.195126 62.3451 0.233809C63.0799 0.284394 63.8209 0.284395 64.5557 0.311176C65.5674 0.343908 66.5745 0.394493 67.5877 0.433176C69.26 0.500127 70.9369 0.550714 72.6092 0.644446C73.6039 0.705446 74.6048 0.683129 75.5886 0.845301C77.5734 1.17411 79.3493 1.9195 80.8591 3.22133C81.1593 3.47724 81.201 3.46682 81.2753 3.09338C81.3743 2.58753 81.4485 2.07572 81.5475 1.56838C81.6404 1.06698 81.8028 0.944983 82.335 0.916714C84.51 0.805129 86.685 0.644445 88.86 0.516493C90.4735 0.421273 92.0886 0.333494 93.702 0.227859C95.4718 0.110322 97.2477 0.0329549 99.0236 0.000223065C99.1969 0.0106377 99.3763 -0.0220941 99.5496 0.0225402C99.7167 0.134126 99.7584 0.317127 99.8218 0.483762C100.059 1.15625 100.291 1.83023 100.527 2.50272C100.694 2.97584 100.753 3.03089 101.279 2.99221C102.113 2.93121 102.951 2.86426 103.784 2.79731C105.091 2.69167 106.404 2.61431 107.711 2.49677C108.33 2.44172 108.955 2.43577 109.568 2.3465C110.193 2.25723 110.672 2.37923 110.938 3.00263C111.042 3.25258 111.187 3.49212 111.39 3.79861C111.494 3.38648 111.58 3.05321 111.645 2.71399C111.715 2.3465 111.918 2.18582 112.317 2.1516C114.578 1.97901 116.84 1.81833 119.097 1.64574C120.294 1.55647 121.486 1.46721 122.684 1.37347C123.031 1.34521 123.263 1.44042 123.453 1.71269C123.679 2.0296 123.865 2.37477 124.182 2.70358C124.321 2.39709 124.355 2.10845 124.425 1.83023C124.547 1.35116 124.714 1.19642 125.229 1.16815C127.248 1.05062 129.262 0.873568 131.281 0.729251C133.312 0.584933 135.342 0.434663 137.373 0.256126C137.702 0.227857 138.038 0.239761 138.368 0.201078C138.663 0.168346 138.796 0.318614 138.779 0.596835C138.762 0.820007 138.716 1.03574 138.675 1.25891C138.623 1.52077 138.722 1.64872 139.011 1.65913C140.527 1.70972 142.037 1.83172 143.553 1.92099C144.791 1.99389 146.034 2.03852 147.273 2.16648C147.702 2.21111 147.789 2.30484 147.765 2.73333C147.656 4.59161 147.487 6.44393 147.349 8.30221C147.25 9.59363 147.153 10.8776 147.06 12.169C146.938 13.8324 146.817 15.4958 146.672 17.1547C146.625 17.6888 146.678 17.7439 147.238 17.7721C149.246 17.8614 151.248 17.9507 153.248 18.089C153.548 18.1113 153.856 18.089 154.156 18.1054C154.608 18.1337 154.728 18.272 154.601 18.7005C154.318 19.6914 154.006 20.6763 153.7 21.6598C153.404 22.5897 153.115 23.524 152.826 24.4584C152.785 24.5863 152.726 24.7143 152.762 24.8541C152.935 24.8987 153.062 24.8095 153.191 24.7544C155.712 23.6639 158.356 23.1134 161.116 22.9244C163.077 22.7905 165.009 22.9914 166.959 23.0628C167.317 23.0792 167.491 22.9795 167.601 22.667C167.717 22.3382 167.843 22.0109 167.983 21.694C168.173 21.2551 168.278 21.2045 168.747 21.3206C171.072 21.8874 173.392 22.484 175.713 23.0672C178.496 23.768 181.279 24.4688 184.06 25.171C185.46 25.5221 186.86 25.8718 188.254 26.2288C188.508 26.2913 188.825 26.2973 189 26.5696Z" fill="black"/>
<path d="M0.000793457 39.6727C0.10444 39.5552 0.0704065 39.4109 0.0874231 39.277C0.0982519 39.155 0.0704076 39.027 0.167866 38.9214C0.174054 39.033 0.184882 39.1446 0.174053 39.2502C0.0936106 40.1459 0.104439 41.0415 0.174053 41.9372C0.180241 42.0488 0.167866 42.1544 0.167866 42.266C0.0642198 42.1485 0.10444 42.0041 0.0874231 41.8658C0.0704065 41.7155 0.110628 41.5593 0.00698169 41.4269C0.000793835 40.8407 0.000793457 40.256 0.000793457 39.6727Z" fill="#BBB9B8"/>
<path d="M146.143 74.742C146.512 75.5097 146.871 76.261 147.247 77.0451C146.808 77.0451 146.409 77.0555 146.014 77.0451C145.163 77.0124 144.314 76.9558 143.457 76.9172C141.808 76.8502 140.165 76.7892 138.516 76.7223C136.248 76.6226 133.98 76.511 131.712 76.4158C131.429 76.4054 131.354 76.2714 131.273 76.0646C129.694 72.1428 128.103 68.2194 126.518 64.2975C126.461 64.1592 126.437 64.003 126.281 63.8408C126.247 64.3809 126.205 64.8808 126.182 65.3822C126.078 67.6183 125.986 69.856 125.887 72.0922C125.834 73.3167 125.771 74.5352 125.713 75.7581C125.696 76.142 125.69 76.1539 125.291 76.1361C123.718 76.0691 122.145 75.9917 120.57 75.9248C119.645 75.8861 118.718 75.8519 117.799 75.8072C115.485 75.6897 113.171 75.7626 110.862 75.7522C107.756 75.7418 104.644 75.7462 101.537 75.7462H101.277C100.908 75.7403 100.908 75.7403 100.844 75.3788C100.521 73.5978 100.196 71.8229 99.8775 70.0435C99.8141 69.7042 99.8141 69.6983 99.4722 69.6983H88.0185C87.6302 69.6983 87.6951 69.6537 87.5729 70.0598C87.0346 71.8348 86.5086 73.6097 85.9703 75.3788C85.8604 75.7343 85.8604 75.7403 85.4722 75.7403H71.5479C71.4489 75.7403 71.3453 75.7626 71.2416 75.7016C71.189 75.5841 71.2525 75.468 71.2818 75.3505C74.1221 65.1858 76.9623 55.0255 79.8025 44.8608C79.8134 44.8221 79.8257 44.7834 79.8366 44.7388C79.9356 44.3713 79.9356 44.3653 79.5535 44.3609C78.6454 44.3505 77.7311 44.3445 76.8231 44.3386H75.9382C75.9846 43.8654 76.1238 43.4533 76.2213 43.0427C77.0257 39.6772 77.8534 36.294 78.6748 32.9166C78.7784 32.4881 78.7784 32.4881 79.2302 32.4881H103.702C104.118 32.4881 104.118 32.4881 104.223 32.8616C105.693 38.365 107.167 43.861 108.632 49.3644C109.998 54.4884 111.362 59.6124 112.728 64.7379C112.758 64.8555 112.804 64.9715 112.861 65.1664C112.96 64.8212 112.96 64.549 112.971 64.2767C113.081 61.9007 113.197 59.5246 113.307 57.1501C113.376 55.7039 113.434 54.2623 113.503 52.8161C113.579 51.1914 113.659 49.5667 113.74 47.942C113.769 47.3305 113.792 46.7176 113.826 46.1061C113.837 45.8889 113.74 45.8561 113.548 45.8502C112.853 45.8279 112.159 45.7951 111.466 45.7669C111.426 45.7669 111.379 45.7669 111.339 45.7609C110.91 45.7445 110.91 45.7445 111.016 45.3607C111.073 45.1435 111.138 44.9322 111.201 44.7209C112.225 41.1323 113.249 37.5437 114.278 33.9551C114.295 33.8882 114.325 33.8212 114.335 33.7543C114.359 33.537 114.498 33.4865 114.694 33.5088C115.4 33.5757 116.111 33.5534 116.817 33.6085C117.655 33.6754 118.494 33.6754 119.327 33.726C120.97 33.8212 122.619 33.8539 124.268 33.9268C126.45 34.0221 128.631 34.1322 130.806 34.2274C131.743 34.272 132.686 34.2884 133.623 34.339C136.533 34.4952 139.257 35.2183 141.681 36.8311C143.318 37.9216 144.654 39.2964 145.742 40.8987C145.829 41.0267 145.915 41.1546 146.014 41.3049C146.153 41.1665 146.113 41.0103 146.124 40.8705C146.303 38.8009 146.783 36.8087 147.737 34.94C149.404 31.6847 152.071 29.4649 155.519 28.0857C157.005 27.4906 158.568 27.1558 160.164 26.9728C162.027 26.7556 163.885 26.8553 165.747 26.9565C167.136 27.0294 168.501 27.2243 169.867 27.4683C170.017 27.4965 170.11 27.4623 170.162 27.312C170.278 26.9951 170.399 26.6886 170.521 26.3717C170.707 25.8927 170.707 25.8986 171.203 26.0206C173.032 26.4818 174.859 26.9446 176.687 27.4058C178.989 27.9845 181.293 28.5692 183.595 29.1525C183.936 29.2358 183.936 29.2417 183.827 29.5646C182.068 34.5949 180.315 39.6192 178.556 44.648C178.539 44.6986 178.516 44.7537 178.499 44.8042C178.465 44.9262 178.395 44.9649 178.279 44.8935C178.18 44.8325 178.083 44.7715 177.984 44.715C175.108 43.0575 172.065 41.7721 168.838 40.8868C167.814 40.6086 166.767 40.503 165.709 40.5982C165.275 40.6369 164.858 40.7321 164.459 40.9151C163.654 41.2826 163.308 41.9328 163.238 42.7451C163.215 43.0174 163.337 43.2629 163.498 43.4845C163.753 43.8461 164.1 44.1184 164.465 44.3743C165.576 45.142 166.813 45.682 168.063 46.1939C170.418 47.1624 172.738 48.186 174.936 49.4536C176.545 50.3835 178.026 51.4562 179.24 52.8473C180.917 54.7726 181.959 56.9641 182.323 59.4517C182.798 62.6684 182.439 65.8062 181.235 68.8383C179.916 72.1487 177.603 74.681 174.472 76.5274C172.291 77.8128 169.919 78.6088 167.396 79.009C165.62 79.2932 163.832 79.3869 162.039 79.3155C158.314 79.1593 154.72 78.3856 151.261 77.057C149.648 76.4396 148.092 75.721 146.57 74.9101C146.455 74.8298 146.351 74.7241 146.143 74.742Z" fill="white"/>
<path d="M42.96 25.0891C42.5547 26.513 42.1556 27.8877 41.7627 29.2669C40.7092 32.979 39.6511 36.6836 38.5976 40.3957C38.5806 40.4627 38.5574 40.5296 38.5342 40.5966C38.4305 40.9522 38.4305 40.9522 38.0886 40.8242C36.0807 40.0669 34.0046 39.5506 31.9039 39.0998C30.7931 38.8603 29.6654 38.6713 28.5377 38.5374C27.0572 38.3589 25.5984 38.3931 24.1644 38.8439C23.6957 38.9942 23.244 39.1772 22.8634 39.4837C22.2972 39.9449 22.1116 40.5519 22.1642 41.2423C22.1936 41.6261 22.4241 41.9148 22.7087 42.1603C23.0784 42.4772 23.5007 42.7167 23.9463 42.928C25.1204 43.4785 26.358 43.8519 27.6079 44.1852C30.2223 44.8859 32.815 45.6492 35.3072 46.6892C36.9037 47.3572 38.4197 48.1532 39.7624 49.2378C42.1695 51.1794 43.7366 53.6224 44.5116 56.537C45.084 58.6854 45.2294 60.865 45.0562 63.0744C44.8999 65.1053 44.4204 67.0528 43.5293 68.8992C42.1185 71.8317 39.9419 74.1244 37.1604 75.9038C34.8354 77.3887 32.272 78.3349 29.5478 78.8914C26.9149 79.4314 24.2541 79.5981 21.5701 79.4761C17.9827 79.3094 14.5067 78.5968 11.1219 77.4571C9.69254 76.9736 8.28789 76.4216 6.9111 75.8101C6.5522 75.6494 6.55839 75.6494 6.63264 75.276C7.22822 72.2155 7.81917 69.1611 8.41475 66.1006C8.79066 64.1754 9.16038 62.2502 9.5363 60.325C9.58889 60.0572 9.59353 60.0527 9.87818 60.1524C11.3818 60.6805 12.887 61.2043 14.3907 61.7443C16.0165 62.3231 17.6362 62.9018 19.3363 63.2515C20.7936 63.552 22.2632 63.7633 23.7622 63.7023C24.531 63.674 25.289 63.5803 26.0006 63.2857C26.655 63.0134 27.1578 62.5954 27.3542 61.911C27.5863 61.0986 27.4703 60.3755 26.7757 59.7849C26.2729 59.3564 25.6943 59.0454 25.0864 58.7776C23.7436 58.1825 22.3204 57.821 20.8988 57.4535C18.238 56.7587 15.6112 55.9686 13.0881 54.8662C11.2658 54.0702 9.62293 53.0362 8.22292 51.6495C6.36656 49.8017 5.19087 47.6042 4.59065 45.1121C4.07551 42.9815 3.94247 40.8227 4.16833 38.6475C4.53341 35.1973 5.89165 32.1875 8.44414 29.7013C10.4629 27.7255 12.8808 26.385 15.6236 25.5727C17.0762 25.1442 18.5628 24.866 20.0727 24.7216C21.369 24.5937 22.6638 24.5163 23.9602 24.4375C24.8389 24.3824 25.7253 24.4985 26.604 24.4925C27.0665 24.4925 27.0665 24.4985 27.1701 24.0804C27.2475 23.759 27.3233 23.4317 27.4037 23.1088C27.4857 22.786 27.4904 22.7741 27.8431 22.8247C28.4557 22.908 29.0698 23.0032 29.6824 23.0969C31.0933 23.3082 32.5056 23.5195 33.9165 23.7367C35.3273 23.948 36.7397 24.1652 38.1505 24.3705C39.5335 24.5758 40.9165 24.7826 42.2979 24.988C42.5145 25.0118 42.711 25.0504 42.96 25.0891Z" fill="white"/>
<path d="M39.7841 47.8124C39.928 47.134 40.0672 46.4556 40.2126 45.7816C40.8948 42.5872 41.5786 39.3885 42.2608 36.1956C42.2716 36.1406 42.284 36.084 42.2948 36.0349C42.3242 35.846 42.4047 35.7627 42.6305 35.7508C43.8171 35.7061 44.9974 35.6451 46.1824 35.5782C47.9583 35.4829 49.728 35.3728 51.5039 35.2776C52.8173 35.2047 54.1307 35.1497 55.444 35.0827C57.1163 34.9994 58.7932 34.9101 60.4655 34.8209C60.5645 34.8149 60.6681 34.7881 60.7656 34.7881C60.9977 34.7941 61.0889 34.6989 61.1121 34.4772C61.1462 34.132 61.2281 33.7928 61.2792 33.4476C61.3086 33.2587 61.3782 33.1634 61.6087 33.153C62.8231 33.1144 64.0328 33.0534 65.2472 32.9968C66.8792 32.9239 68.5097 32.8525 70.1418 32.7736C70.8193 32.7409 71.5015 32.735 72.1776 32.6963C73.5884 32.613 75.007 32.5683 76.424 32.5133C76.523 32.5073 76.6266 32.5073 76.7241 32.5073C76.984 32.5133 77.0072 32.5356 76.9438 32.7692C76.8107 33.281 76.6653 33.7868 76.5276 34.2986C75.4633 38.2101 74.399 42.132 73.3347 46.0553C73.2311 46.4288 73.2311 46.4228 72.8196 46.4392C71.0142 46.5121 69.2089 46.5954 67.4052 46.6668C66.3935 46.7055 65.3802 46.7397 64.3731 46.7784C63.94 46.7948 63.5053 46.823 63.0721 46.8454C62.7364 46.8617 62.7303 46.8677 62.7426 47.1742C62.772 47.8139 62.8061 48.4537 62.8416 49.0875C62.8819 49.8671 62.9406 50.6393 62.9747 51.4189C63.0737 53.4051 63.1649 55.3913 63.2701 57.3776C63.38 59.5974 63.5022 61.8232 63.612 64.043C63.728 66.3074 63.8441 68.5719 63.9647 70.8304C64.0343 72.1664 64.1148 73.495 64.1906 74.8251C64.2138 75.2417 64.2432 75.2149 63.8209 75.2313C61.3798 75.3429 58.9433 75.4589 56.5022 75.5765C55.0728 75.6494 53.6449 75.7268 52.2155 75.7997C52.0717 75.8056 51.9262 75.7997 51.7824 75.8101C51.6153 75.8205 51.5503 75.7491 51.5457 75.5929C51.5287 75.1763 51.4993 74.7582 51.4761 74.3416C51.4065 72.9505 51.343 71.5653 51.2672 70.1742C51.1682 68.3546 51.0584 66.5351 50.9548 64.7214C50.879 63.3586 50.8217 62.0002 50.7459 60.6374C50.6763 59.3296 50.5959 58.0277 50.5201 56.7259C50.486 56.1144 50.4504 55.5014 50.4211 54.8959C50.322 52.9647 50.2246 51.035 50.1256 49.1039C50.1024 48.6025 50.073 48.1026 50.0451 47.6071C50.0281 47.2739 50.0219 47.2619 49.7033 47.2783C48.5817 47.3453 47.4524 47.4167 46.3309 47.4836C45.7817 47.5164 45.2372 47.5506 44.688 47.5833C43.2308 47.6666 41.772 47.7499 40.3147 47.8333C40.1538 47.8511 39.9806 47.8839 39.7841 47.8124Z" fill="white"/>
<path d="M124.859 12.7923C125.119 11.4399 125.385 10.089 125.647 8.74251C125.942 7.20114 126.236 5.6553 126.515 4.11393C126.555 3.87439 126.682 3.81934 126.891 3.80298C127.324 3.77471 127.752 3.74198 128.187 3.70776C129.5 3.61254 130.808 3.52922 132.121 3.42954C133.099 3.35664 134.076 3.27332 135.054 3.2019C135.164 3.19149 135.286 3.16917 135.43 3.23017C135.343 3.7643 135.263 4.30437 135.17 4.84296C134.834 6.85746 134.499 8.87046 134.158 10.885C133.858 12.6927 133.55 14.5018 133.244 16.3095C132.944 18.1172 132.636 19.9264 132.336 21.74C132.104 23.1371 131.867 24.5386 131.641 25.9357C131.612 26.1023 131.538 26.1692 131.369 26.1916C130.941 26.2526 130.507 26.2466 130.073 26.2912C129.199 26.3805 128.314 26.4192 127.44 26.4862C126.116 26.5858 124.79 26.6915 123.466 26.7971C123.206 26.8194 122.944 26.8075 122.684 26.8417C122.465 26.87 122.389 26.7867 122.319 26.5962C121.903 25.4551 121.475 24.3258 121.046 23.1906C120.474 21.6656 119.901 20.1421 119.328 18.6112C119.298 18.5338 119.293 18.4505 119.165 18.3776C119.038 18.995 118.916 19.5961 118.795 20.1972C118.344 22.4334 117.887 24.6651 117.448 26.9012C117.402 27.1348 117.344 27.2524 117.055 27.2687C116.118 27.3193 115.186 27.4131 114.249 27.486C112.883 27.5916 111.512 27.6972 110.148 27.8029C109.616 27.8415 109.084 27.8802 108.551 27.9085C108.216 27.9249 108.209 27.9189 108.106 27.6139L106.266 22.1998C104.444 16.8362 102.628 11.4726 100.806 6.10909C100.776 6.01387 100.736 5.92609 100.742 5.80855C101.373 5.6806 102.026 5.69101 102.664 5.63001C104.087 5.50206 105.51 5.40684 106.939 5.30121C107.704 5.24616 108.466 5.18367 109.23 5.12862C109.56 5.1063 109.566 5.1063 109.693 5.46189C110.654 8.09383 111.608 10.7258 112.569 13.3518C112.626 13.5184 112.655 13.7029 112.812 13.8636C112.962 13.1018 113.107 12.3668 113.251 11.6318C113.68 9.43434 114.102 7.23685 114.535 5.04381C114.598 4.72096 114.605 4.72691 114.94 4.70459C116.334 4.59896 117.734 4.49332 119.128 4.38769C119.874 4.33264 120.627 4.28206 121.373 4.2151C121.586 4.19279 121.609 4.32074 121.656 4.44869C121.985 5.3384 122.31 6.2296 122.633 7.11336C123.299 8.91659 123.958 10.7183 124.623 12.5216C124.646 12.5885 124.68 12.6495 124.709 12.7105C124.743 12.7596 124.762 12.8489 124.859 12.7923Z" fill="white"/>
<path d="M105.276 25.3838C104.183 25.4507 103.142 25.5117 102.107 25.5787C100.649 25.668 99.1968 25.7572 97.7396 25.8465C97.4333 25.8629 97.4271 25.8629 97.3513 25.5623C97.1254 24.689 96.8949 23.8156 96.6799 22.9363C96.6273 22.7251 96.5469 22.6864 96.3272 22.7028C95.2335 22.7861 94.1351 22.8411 93.0414 22.9081C92.1628 22.9631 91.2825 23.0301 90.4039 23.0643C90.1548 23.0747 90.1254 23.2086 90.0852 23.3752C89.9351 24.0269 89.7897 24.6771 89.6459 25.3287C89.5824 25.601 89.519 25.8688 89.4664 26.1411C89.4324 26.3137 89.3566 26.397 89.1539 26.4089C88.1128 26.4595 87.0763 26.5205 86.0414 26.5874C84.7172 26.6648 83.3915 26.7541 82.0611 26.8329C81.9219 26.8433 81.778 26.8835 81.6047 26.8002C82.7727 21.1748 83.9484 15.5494 85.1225 9.90312C84.4047 9.84807 83.7225 10.0207 82.9877 9.95817C83.1099 9.25146 83.2244 8.56111 83.3404 7.8663C83.5601 6.59274 83.7798 5.31768 83.9994 4.04412C84.0103 3.97717 84.0288 3.90575 84.0335 3.8388C84.0505 3.61563 84.1727 3.55463 84.3986 3.53826C85.9718 3.45494 87.5451 3.36568 89.1137 3.27046C90.902 3.16482 92.6887 3.04728 94.477 2.93719C95.3851 2.88214 96.2932 2.8256 97.2012 2.7646C97.5771 2.74228 97.5771 2.73633 97.6994 3.08745C98.1325 4.36697 98.5672 5.64649 99.0065 6.92154C101.042 12.9189 103.084 18.9178 105.122 24.9151C105.173 25.0609 105.219 25.2067 105.276 25.3838Z" fill="white"/>
<path d="M62.0573 9.64425C62.277 8.83191 62.4734 8.09247 62.6761 7.35749C63.0412 6.04375 63.4047 4.7315 63.7698 3.41776C63.8796 3.02796 63.8796 3.01754 64.3081 3.03391C66.0377 3.10681 67.7733 3.18418 69.5029 3.25708C70.5563 3.30172 71.6145 3.32403 72.6679 3.36867C73.4028 3.4014 74.1376 3.4133 74.8724 3.51298C77.5966 3.87452 79.5581 5.27604 80.8189 7.59703C81.5831 8.99854 81.7858 10.5236 81.6929 12.0872C81.6357 13.0781 81.4671 14.0452 81.1082 14.981C80.5126 16.5447 79.4823 17.7856 78.0529 18.7199C77.7296 18.9312 77.7296 18.9371 77.9029 19.2927C78.9796 21.5348 80.0547 23.777 81.1314 26.0191C81.184 26.1307 81.235 26.2423 81.2985 26.3806C81.0664 26.3806 80.87 26.3866 80.6735 26.3806C78.9734 26.3077 77.2655 26.2304 75.5654 26.1575C74.8012 26.1247 74.0324 26.0801 73.2682 26.0742C73.0021 26.0742 72.8984 25.9745 72.8118 25.7513C72.0136 23.7323 71.1968 21.7119 70.3877 19.6974C70.3537 19.6081 70.3119 19.5248 70.2083 19.4474C70.1789 19.9488 70.1448 20.4487 70.1216 20.9546C70.0582 22.5123 69.9994 24.0641 69.936 25.6233C69.9252 25.9179 69.919 25.9298 69.6173 25.9179C68.1709 25.8629 66.7307 25.8063 65.2843 25.7453C64.5897 25.7171 63.8951 25.6843 63.2067 25.668C62.987 25.662 62.9112 25.6129 62.9236 25.3838C62.9994 23.8543 63.0628 22.3293 63.1263 20.7999C63.2067 18.8523 63.2887 16.9107 63.3753 14.9632C63.4449 13.3385 63.5192 11.7138 63.595 10.0891C63.595 10.0341 63.595 9.97752 63.6012 9.92248C63.6306 9.73352 63.561 9.6383 63.3459 9.64425C62.936 9.65467 62.5369 9.64425 62.0573 9.64425Z" fill="white"/>
<path d="M58.3198 14.2624C58.4003 14.3903 58.5333 14.423 58.6431 14.49C59.1413 14.7786 59.6146 15.0851 60.0772 15.4243C61.0146 16.1192 61.6396 17.0104 61.9753 18.095C62.3218 19.2138 62.5415 20.349 62.3404 21.505C61.9475 23.7814 60.5521 25.2945 58.36 26.1559C57.5386 26.4788 56.6599 26.5517 55.7859 26.6514C54.6814 26.7793 53.5815 26.9132 52.4831 27.0412C51.4358 27.1632 50.3947 27.2807 49.3474 27.4027C48.2429 27.5307 47.143 27.6527 46.0447 27.7985C45.4367 27.8758 45.4321 27.8937 45.3563 27.3253C45.1892 26.0176 45.0376 24.7053 44.8767 23.3916C44.7205 22.0778 44.558 20.7715 44.3971 19.4638C44.2409 18.15 44.0785 16.8437 43.9222 15.53C43.7892 14.429 43.6438 13.3265 43.5231 12.2196C43.4999 12.0024 43.4195 11.9354 43.2044 11.9637C42.8053 12.0187 42.4124 12.0589 41.9715 12.1021C42.0241 11.5962 42.0643 11.1171 42.1154 10.6381C42.2886 9.00742 42.4681 7.37826 42.6475 5.74762C42.6877 5.36972 42.6877 5.35782 43.1101 5.30872C43.9083 5.20904 44.7127 5.12572 45.5171 5.0305C46.6217 4.90255 47.7216 4.76864 48.8199 4.64069C49.6352 4.54547 50.452 4.45769 51.2672 4.36247C52.1227 4.26279 52.9859 4.17352 53.8414 4.05598C55.8029 3.78817 57.5386 4.20625 58.9618 5.58545C59.511 6.11362 59.9101 6.73702 60.1592 7.44373C60.5815 8.62356 60.6851 9.82571 60.4252 11.0546C60.1824 12.1958 59.5914 13.1406 58.7128 13.9306C58.5735 14.0451 58.4467 14.1567 58.3198 14.2624Z" fill="white"/>
<path d="M128.088 105.12C129.076 105.015 130.067 104.909 131.05 104.797C131.652 104.73 132.254 104.659 132.856 104.602C133.151 104.574 133.162 104.586 133.185 104.881C133.255 105.882 133.255 106.883 133.179 107.88C133.052 109.56 132.723 111.207 132.161 112.809C131.327 115.191 130.033 117.299 128.17 119.068C127.342 119.852 126.44 120.537 125.427 121.132C125.242 120.709 125.144 120.281 125.016 119.858C123.575 115.179 122.14 110.494 120.7 105.815C120.63 105.587 120.63 105.392 120.7 105.169C122.412 99.5558 124.118 93.9363 125.82 88.3168C125.89 88.0937 126.006 87.9776 126.225 87.8943C128.215 87.1325 130.206 86.3589 132.201 85.5852C132.358 85.6745 132.368 85.8352 132.421 85.975C133.167 87.9449 133.618 89.9698 133.751 92.0617C133.891 94.2205 133.642 96.3346 132.918 98.3819C131.98 101.042 130.314 103.222 128.082 105.015C128.052 105.053 128.018 105.092 128.088 105.12Z" fill="white"/>
<path d="M59.2387 105.12C58.8969 104.825 58.6199 104.592 58.3477 104.346C55.7797 102.037 54.2111 99.2104 53.6495 95.8733C53.3309 93.9644 53.3665 92.057 53.6728 90.1482C53.8986 88.7571 54.2451 87.4002 54.7494 86.0805C54.8129 85.9139 54.8593 85.7353 54.9861 85.5791C56.2423 86.0626 57.4969 86.5477 58.753 87.0312C59.4476 87.299 60.136 87.5757 60.8414 87.8331C61.1075 87.9284 61.2529 88.0727 61.3333 88.339C62.345 91.6657 63.3645 94.994 64.3886 98.3148C65.094 100.618 65.7994 102.917 66.511 105.214C66.5806 105.431 66.6038 105.636 66.5342 105.859C65.012 110.85 63.4913 115.835 61.9691 120.827C61.9351 120.932 61.9289 121.05 61.8191 121.144C61.2235 120.815 60.6681 120.421 60.136 120.003C57.4984 117.933 55.7967 115.279 54.8423 112.163C54.143 109.893 53.8646 107.567 54.0084 105.203C54.0549 104.464 53.9156 104.552 54.7494 104.653C55.5771 104.748 56.4093 104.836 57.2432 104.925C57.6717 104.976 58.0986 105.031 58.5271 105.075C58.736 105.098 58.9448 105.104 59.2387 105.12Z" fill="white"/>
<path d="M64.7181 121.467C64.8805 120.705 65.1466 119.97 65.3725 119.225C66.7152 114.807 68.0626 110.388 69.41 105.971C69.4967 105.693 69.4967 105.443 69.41 105.165C67.86 100.14 66.3099 95.116 64.7707 90.0872C64.7243 89.931 64.5619 89.7763 64.7011 89.5918C65.3833 89.7644 65.9387 90.181 66.5342 90.5098C69.5075 92.1404 72.4808 93.7696 75.4494 95.4062C75.6227 95.5014 75.8253 95.5728 75.8779 95.79C75.618 96.4521 75.2421 97.0636 74.9528 97.7152C74.0741 99.7074 73.5358 101.777 73.3734 103.924C73.2233 105.938 73.5358 107.919 74.1082 109.86C75.1787 113.465 77.1449 116.56 80.0207 119.08C83.226 121.885 87.0037 123.542 91.3197 124.021C95.3341 124.466 99.152 123.788 102.752 122.029C104.447 121.2 105.985 120.154 107.38 118.891C110.898 115.697 112.957 111.781 113.698 107.202C113.762 106.824 113.692 106.417 113.953 106.083C114.209 106.182 114.139 106.406 114.144 106.584C114.184 107.63 114.051 108.666 113.861 109.689C113.514 111.515 112.917 113.267 112.049 114.925C111.95 115.108 111.853 115.298 111.726 115.465C108.318 121.608 101.261 125.792 93.7283 125.741C90.7613 125.786 87.9257 125.207 85.2123 124.061C83.1579 123.194 81.3016 122.031 79.6417 120.568C78.1148 119.228 76.8308 117.697 75.7835 115.984C75.5979 115.684 75.4308 115.7 75.1586 115.846C73.6828 116.648 72.2255 117.47 70.7559 118.277C68.9104 119.294 67.0772 120.318 65.2255 121.331C65.077 121.434 64.9269 121.578 64.7181 121.467Z" fill="#FEE25B"/>
<path d="M143.539 20.3104C146.027 20.4443 148.485 20.5782 150.991 20.7106C150.754 21.4723 150.528 22.185 150.309 22.8977C149.863 24.3438 149.418 25.7959 148.972 27.2436C148.862 27.5992 148.856 27.6111 148.474 27.5828C146.774 27.4772 145.072 27.3656 143.372 27.2659C142.25 27.1989 141.121 27.1379 140 27.071C138.686 26.9936 137.379 26.9043 136.036 26.821C136.047 26.5369 136.059 26.2646 136.077 25.9923C136.239 23.9109 136.406 21.8354 136.568 19.7554C136.725 17.7186 136.875 15.6773 137.025 13.6405C137.082 12.8609 137.147 12.0887 137.204 11.3091C137.227 10.9863 137.221 10.9863 136.898 10.9639C136.51 10.9357 136.129 10.9029 135.707 10.8687C135.776 10.3956 135.834 9.94478 135.903 9.49398C136.159 7.84697 136.418 6.19996 136.655 4.547C136.689 4.29705 136.788 4.25837 137.008 4.27474C138.188 4.3521 139.368 4.42501 140.553 4.49791C141.132 4.53064 141.704 4.57081 142.283 4.60354C142.978 4.64223 143.666 4.67049 144.361 4.71513C144.743 4.73745 144.743 4.7434 144.713 5.10493C144.523 7.50329 144.331 9.90164 144.147 12.2985C143.991 14.3353 143.841 16.3706 143.691 18.4134C143.644 19.0353 143.592 19.6528 143.539 20.3104Z" fill="white"/>
<path d="M111.607 115.463C112.352 114.178 112.914 112.821 113.325 111.402C113.598 110.472 113.794 109.521 113.915 108.564C114.008 107.825 114.059 107.079 114.025 106.328C114.018 106.245 114.014 106.161 113.961 106.089C113.822 106.011 113.834 105.883 113.845 105.755C113.978 104.12 113.718 102.518 113.347 100.926C112.948 99.2238 112.306 97.6036 111.421 96.08C111.358 95.9684 111.299 95.8569 111.299 95.7289C111.333 95.5563 111.489 95.4894 111.622 95.418C115.087 93.5091 118.546 91.5794 122.012 89.6646C122.151 89.5872 122.312 89.5649 122.457 89.5039C122.613 89.6482 122.463 89.7881 122.428 89.9101C121.682 92.3918 120.929 94.8675 120.177 97.3432C119.385 99.9528 118.587 102.562 117.788 105.172C117.719 105.395 117.719 105.595 117.782 105.818C119.176 110.341 120.565 114.865 121.959 119.388C122.162 120.056 122.358 120.724 122.554 121.386C122.352 121.481 122.189 121.376 122.029 121.287C118.673 119.416 115.301 117.58 111.933 115.728C111.803 115.664 111.676 115.591 111.607 115.463Z" fill="#FDB820"/>
<path d="M122.452 89.5085C122.07 89.8314 121.602 90.0203 121.168 90.2658C119.502 91.2061 117.83 92.1241 116.158 93.054C114.897 93.7488 113.63 94.4451 112.369 95.1354C112.034 95.3184 111.692 95.4969 111.351 95.6755C111.108 95.6204 111.028 95.4032 110.923 95.2366C109.094 92.3547 106.63 90.0962 103.587 88.4313C101.123 87.0849 98.4667 86.2725 95.6388 86.0107C95.0773 85.9601 94.5173 85.9497 93.9557 85.9378C93.7593 85.9318 93.5396 85.9482 93.4468 85.7101C93.3834 85.5048 93.4004 85.298 93.4004 85.0867V74.4102C93.4004 74.1483 93.3772 73.8761 93.5566 73.6484C93.7067 73.6544 93.7655 73.7823 93.8521 73.8716C97.67 77.6655 101.483 81.4669 105.295 85.2668C105.515 85.484 105.741 85.6223 106.053 85.6952C110.576 86.7352 115.095 87.7812 119.614 88.833C120.556 89.0517 121.504 89.2853 122.452 89.5085Z" fill="#FEE25B"/>
<path d="M93.5504 73.6455C93.5566 77.5852 93.5566 81.519 93.5613 85.4572C93.5613 85.5688 93.5551 85.6804 93.5551 85.7905C93.4514 85.9854 93.2596 85.9289 93.0987 85.9348C88.2737 86.0345 84.0505 87.6488 80.378 90.6199C78.7058 91.9724 77.346 93.5852 76.2012 95.3661C76.1084 95.5104 76.0574 95.7112 75.8315 95.7395C73.6735 94.5493 71.5217 93.3635 69.3636 92.1732C67.894 91.3668 66.4306 90.5604 64.961 89.7526C64.8743 89.702 64.7985 89.641 64.7119 89.5859C65.6432 89.3583 66.5806 89.1292 67.5181 88.9075C71.6145 87.9449 75.7093 86.9882 79.7995 86.0256C80.2914 85.908 80.771 85.7801 81.2691 85.6804C81.4826 85.6358 81.6342 85.5421 81.778 85.3962C85.5959 81.5622 89.42 77.7296 93.2503 73.9014C93.3308 73.8121 93.4004 73.6782 93.5504 73.6455Z" fill="white"/>
<path d="M111.607 115.463C112.301 115.764 112.943 116.17 113.602 116.526C115.129 117.354 116.651 118.201 118.178 119.04C119.439 119.735 120.7 120.431 121.962 121.126C122.148 121.226 122.321 121.36 122.547 121.388C122.536 121.544 122.403 121.516 122.304 121.538C119.573 122.184 116.837 122.824 114.106 123.463C111.387 124.103 108.669 124.743 105.949 125.377C105.759 125.421 105.607 125.505 105.474 125.639C103.086 128.037 100.69 130.435 98.3011 132.838C96.8083 134.335 95.3155 135.826 93.8242 137.322C93.7778 137.373 93.7484 137.489 93.6339 137.422C93.5179 137.221 93.4839 137.005 93.4839 136.776C93.4839 133.271 93.4839 129.772 93.4901 126.266C93.4901 126.039 93.4499 125.783 93.7268 125.643C101.251 125.64 108.112 121.623 111.607 115.463Z" fill="#C95E40"/>
<path d="M93.7237 125.65C93.5968 125.811 93.6432 125.995 93.6432 126.174V136.885C93.6432 137.063 93.637 137.246 93.637 137.425C93.487 137.364 93.4003 137.23 93.2905 137.118C89.5066 133.347 85.7243 129.58 81.9404 125.802C81.7084 125.574 81.4609 125.44 81.136 125.368C75.768 124.127 70.4047 122.88 65.0414 121.635C64.9315 121.606 64.8155 121.596 64.7181 121.529C64.7072 121.523 64.701 121.507 64.701 121.501C64.701 121.49 64.7181 121.478 64.7243 121.468C65.2224 121.285 65.6617 120.989 66.1243 120.739C67.368 120.066 68.5948 119.37 69.8323 118.68C71.0823 117.985 72.326 117.295 73.576 116.598C74.1778 116.265 74.7795 115.942 75.3751 115.608C75.5607 115.502 75.6644 115.547 75.7572 115.713C76.2491 116.598 76.8509 117.411 77.4867 118.195C77.7188 118.479 77.9554 118.762 78.2092 119.018C78.7073 119.519 79.1806 120.035 79.719 120.498C80.5342 121.205 81.4021 121.85 82.3102 122.429C83.1254 122.953 83.9871 123.408 84.8843 123.798C86.4638 124.493 88.1004 125.005 89.8129 125.305C91.1093 125.539 92.4118 125.656 93.7237 125.65Z" fill="#FDB820"/>
<path d="M124.859 12.7925C124.87 12.8431 124.889 12.91 124.836 12.9368C124.779 12.9695 124.75 12.9041 124.726 12.8639C124.709 12.8193 124.709 12.7642 124.697 12.7136C124.756 12.7434 124.807 12.7657 124.859 12.7925Z" fill="#444646"/>
<path d="M128.088 105.12C128.059 105.181 127.995 105.197 127.972 105.142C127.943 105.081 127.995 105.02 128.076 105.014C128.076 105.047 128.082 105.081 128.088 105.12Z" fill="#868789"/>
<path d="M144.633 71.4971C144.453 71.3364 144.413 71.1802 144.343 71.0463C143.129 68.5423 141.913 66.0383 140.699 63.5299C140.532 63.1787 140.532 63.1787 140.889 62.957C143.423 61.3934 145.366 59.3342 146.605 56.6815C147.328 55.1237 147.762 53.4871 147.959 51.791C148.016 51.2673 148.069 50.7451 148.121 50.2273C148.254 50.2214 148.284 50.3107 148.33 50.3776C149.464 52.0127 150.921 53.3205 152.634 54.3724C154.711 55.6519 156.92 56.6651 159.177 57.6099C160.195 58.0383 161.236 58.4162 162.233 58.8894C163.066 59.2851 163.875 59.7121 164.593 60.2745C164.83 60.4575 165.039 60.6703 165.241 60.892C166.097 61.8159 165.565 63.2903 164.709 63.7679C164.183 64.0625 163.609 64.1845 163.014 64.2068C161.597 64.2619 160.225 63.9896 158.883 63.5953C157.473 63.1832 156.113 62.6491 154.799 61.987C152.943 61.0526 151.091 60.1168 149.233 59.1825C149.134 59.1319 149.048 59.0545 148.875 59.0649C147.468 63.1906 146.056 67.3253 144.633 71.4971Z" fill="black"/>
<path d="M125.497 50.1827C125.554 48.4747 125.596 47.2279 125.641 45.9766C125.652 45.6032 125.658 45.5928 126.023 45.6151C127.319 45.688 128.626 45.6434 129.923 45.7654C131.722 45.932 133.301 47.3231 133.631 49.0252C134.07 51.2837 132.682 53.3592 130.368 53.8933C130.015 53.9766 129.657 54.0212 129.298 54.0108C128.111 53.9721 126.931 53.9275 125.746 53.8829C125.399 53.8725 125.399 53.8665 125.399 53.5273C125.409 52.2522 125.508 50.9891 125.497 50.1827Z" fill="black"/>
<path d="M93.8459 45.9648C94.87 50.1321 95.9003 54.2936 96.9228 58.4505C96.7666 58.5621 96.6165 58.5234 96.4773 58.5174C94.5111 58.5011 92.5433 58.4788 90.5818 58.4564H90.4952C90.2291 58.446 90.2121 58.4282 90.2755 58.1946C90.3621 57.8717 90.4611 57.5548 90.5478 57.232C91.578 53.6047 92.6021 49.9774 93.6309 46.3486C93.6649 46.2147 93.7113 46.0868 93.7531 45.9529C93.7887 45.9588 93.8165 45.9588 93.8459 45.9648Z" fill="black"/>
<path d="M92.5449 10.3613C93.2442 12.4919 93.9387 14.618 94.6565 16.8036C93.4824 16.9375 92.3191 16.9419 91.0985 17.0595C91.544 14.795 92.0066 12.5856 92.4583 10.3717C92.48 10.3732 92.5093 10.3673 92.5449 10.3613Z" fill="#000100"/>
<path d="M71.6191 13.9678C71.319 13.9678 71.0111 13.9514 70.711 13.9737C70.462 13.9901 70.4279 13.8844 70.4326 13.6851C70.4728 12.7165 70.5022 11.7435 70.5316 10.7749C70.5378 10.5131 70.5548 10.2467 70.5486 9.98489C70.5486 9.81825 70.5888 9.71708 70.7915 9.7394C71.4226 9.80635 72.0584 9.76767 72.6942 9.81676C73.7818 9.90008 74.6202 10.7675 74.6836 11.8313C74.7409 12.8608 73.9891 13.7624 72.9139 13.9841C72.7004 14.0288 72.4854 14.0451 72.2719 14.0347C72.0584 14.0243 71.8388 14.0124 71.6237 14.002C71.6191 13.9886 71.6191 13.9782 71.6191 13.9678Z" fill="black"/>
<path d="M51.2734 22.246C51.1868 21.4664 51.1063 20.7329 51.0305 20.0038C50.9779 19.5203 50.9269 19.0353 50.8743 18.5577C50.8635 18.4297 50.8217 18.2958 51.0182 18.2854C51.7638 18.2304 52.4986 18.0459 53.2504 18.1411C54.2389 18.2631 54.9799 19.1037 54.997 20.0723C55.014 21.0126 54.2622 21.9082 53.2907 22.0481C52.644 22.1403 51.985 22.179 51.2734 22.246Z" fill="black"/>
<path d="M49.9136 10.4953C50.4164 10.3674 50.8975 10.3674 51.3662 10.3227C52.2635 10.2335 53.0215 10.8346 53.136 11.6796C53.252 12.5247 52.627 13.2984 51.8118 13.3995C51.3662 13.4546 50.9207 13.4948 50.4814 13.5498C50.2957 13.5721 50.2323 13.5111 50.2153 13.3326C50.1457 12.6259 50.0652 11.9251 49.9894 11.2184C49.96 10.9789 49.943 10.7453 49.9136 10.4953Z" fill="#010101"/>
<path d="M75.8191 95.7454C76.4735 94.7099 77.1619 93.7042 77.9833 92.7862C81.003 89.3984 84.7636 87.1995 89.304 86.2428C90.588 85.9705 91.8905 85.8203 93.2085 85.8143C93.3245 85.8143 93.4406 85.7979 93.555 85.792C94.2434 85.847 94.938 85.8307 95.6326 85.8976C97.9237 86.1148 100.11 86.6817 102.193 87.6175C105.988 89.3255 108.967 91.9188 111.142 95.3631L111.351 95.68C111.953 96.7706 112.502 97.8834 112.918 99.0573C113.577 100.91 113.913 102.819 114.012 104.772C114.035 105.217 113.966 105.657 113.96 106.102C113.67 108.856 112.918 111.482 111.525 113.909C108.476 119.205 103.87 122.528 97.738 123.868C95.7657 124.297 93.7577 124.392 91.7451 124.201C84.2763 123.501 78.1101 119.083 75.1013 112.796C74.1638 110.838 73.5853 108.785 73.3192 106.642C72.9959 104.004 73.4522 101.468 74.3201 98.9755C74.7084 97.8477 75.2467 96.7854 75.8191 95.7454Z" fill="black"/>
<path d="M93.5968 119.897H86.8752C86.4931 119.897 86.1296 119.852 85.7939 119.652C85.2092 119.3 84.9029 118.789 84.8797 118.133C84.8626 117.659 84.8503 117.186 84.8858 116.713C84.9091 116.38 84.793 116.201 84.4697 116.051C82.5314 115.149 80.8483 113.921 79.4823 112.312C77.8162 110.348 76.8726 108.1 76.7055 105.569C76.4688 101.987 77.5965 98.7865 79.7824 95.9329C82.3566 92.5719 85.7707 90.3863 90.0109 89.446C91.6832 89.0726 93.3771 88.9789 95.0896 89.1351C99.3067 89.5189 102.871 91.2269 105.821 94.1088C108.049 96.284 109.599 98.849 110.224 101.865C111.317 107.161 109.558 111.434 105.098 114.696C104.34 115.252 103.513 115.713 102.651 116.109C102.408 116.221 102.305 116.343 102.315 116.611C102.339 117.084 102.292 117.557 102.326 118.03C102.396 118.992 101.534 119.927 100.36 119.91C98.1093 119.876 95.8538 119.897 93.5968 119.897Z" fill="#FEBE22"/>
<path d="M106.406 108.024C106.376 109.633 105.747 110.967 104.421 111.969C102.605 113.337 100.054 113.264 98.312 111.808C96.1664 110.017 95.9173 106.818 97.7907 104.765C99.0453 103.39 100.643 102.829 102.512 103.229C104.421 103.641 105.625 104.842 106.209 106.623C106.353 107.074 106.417 107.545 106.406 108.024Z" fill="black"/>
<path d="M81.1886 108.024C81.218 106.416 81.8476 105.081 83.178 104.085C85.0637 102.671 87.6611 102.799 89.4138 104.363C91.6244 106.339 91.595 109.81 89.3504 111.747C86.6602 114.066 82.42 112.854 81.3959 109.466C81.252 108.999 81.1886 108.514 81.1886 108.024Z" fill="black"/>
<path d="M84.4512 100.77C83.7458 100.786 83.0682 100.664 82.4386 100.358C81.3449 99.8175 80.7833 98.7716 80.9288 97.5977C81.0556 96.5191 81.5599 95.6115 82.2715 94.7992C83.5957 93.2965 85.2742 92.3398 87.2868 91.9559C88.0912 91.7997 88.8956 91.8057 89.6939 92.011C91.3538 92.4395 92.2216 93.8083 91.8519 95.433C91.5688 96.6738 90.851 97.6691 89.9027 98.5202C88.5831 99.7059 87.0393 100.474 85.234 100.73C84.971 100.758 84.7111 100.764 84.4512 100.77Z" fill="white"/>
<path d="M94.5513 103.784C94.5451 103.512 94.6085 103.244 94.8112 103.049C95.58 102.298 96.3334 101.524 97.1425 100.817C97.8139 100.233 98.8256 100.578 99.0452 101.424C99.1489 101.808 99.0452 102.153 98.7668 102.426C98.0212 103.165 97.2678 103.894 96.4989 104.601C96.1339 104.934 95.6713 104.985 95.215 104.773C94.7895 104.586 94.5683 104.241 94.5513 103.784Z" fill="#010100"/>
<path d="M89.4494 100.536C89.7789 100.564 90.062 100.654 90.2879 100.869C91.0165 101.564 91.7513 102.255 92.4629 102.961C92.9487 103.44 92.9378 104.125 92.4691 104.57C92.0128 105.008 91.2888 105.02 90.7968 104.564C90.0558 103.879 89.3334 103.184 88.6218 102.472C88.2567 102.11 88.1763 101.67 88.4021 101.203C88.611 100.764 88.9977 100.579 89.4494 100.536Z" fill="#010100"/>
<path d="M91.0521 113.761C91.9431 112.386 92.7986 111.068 93.6958 109.683C94.5343 111.074 95.3325 112.398 96.154 113.761H91.0521Z" fill="#010100"/>
</g>
<defs>
<clipPath id="clip0_182_61">
<rect width="189" height="146" fill="white"/>
</clipPath>
</defs>
</svg>
