<svg width="188" height="80" viewBox="0 0 188 80" fill="none" xmlns="http://www.w3.org/2000/svg">
<g clip-path="url(#clip0_8_786)">
<path d="M24.7771 35.6914L19.1648 33.0361H61.7084C63.4516 33.0361 65.0266 31.9955 65.7112 30.3918L69.2966 21.9891L27.977 21.9844C21.0236 21.9844 14.7377 26.1217 11.9869 32.5104L0.704649 59.0243C-1.73894 64.7686 2.47301 71.1447 8.71372 71.1447H45.4468C47.1904 71.1447 48.7654 70.1039 49.4501 68.5003L53.1019 59.9431H14.4399L24.7771 35.693V35.6914Z" fill="#030303"/>
<path d="M143.279 21.9858C136.29 21.9858 129.979 26.1669 127.252 32.6054L125.431 36.9066L124.13 39.9722C121.693 45.7151 125.906 52.0832 132.142 52.0832H135.342H161.462L158.108 59.9446H118.504C116.763 59.9446 115.192 60.9806 114.505 62.5798L110.825 71.1462H155.547C162.521 71.1462 168.821 66.9838 171.558 60.5673L174.836 52.8836C177.287 47.1394 173.073 40.7572 166.831 40.7572H137.539L139.69 35.696L134.216 33.0391H180.424C182.171 33.0391 183.747 31.9955 184.43 30.3885L188 21.9874H143.281L143.279 21.9858Z" fill="#030303"/>
<path d="M130.29 10.7827C130.251 10.7827 130.218 10.7499 130.218 10.7109C130.221 10.4395 130.229 9.47846 130.231 9.29749C130.231 9.04788 130.056 8.84663 129.838 8.84663C129.711 8.84663 129.599 8.91527 129.526 9.02137C129.488 9.07442 129.041 9.72808 128.765 10.1291C128.749 10.1509 128.726 10.1634 128.699 10.1634H106.896C106.81 10.1634 106.74 10.0947 106.738 10.0089L106.695 9.41919C106.693 9.31935 106.784 9.24133 106.882 9.26004L107.997 9.36614C108.094 9.37394 108.181 9.31155 108.204 9.21794L109.017 5.92145C109.034 5.84501 108.992 5.76699 108.919 5.74048L108.164 5.4581C108.12 5.44093 108.087 5.40505 108.076 5.3598C107.939 4.7857 106.823 0.947834 101.441 0.08978C98.8226 -0.326767 97.1076 0.791826 96.1922 1.6842C95.7852 2.08047 95.4499 2.54382 95.1877 3.04929L94.8665 3.75758C94.8387 3.81218 94.7136 4.47677 94.7136 4.53762L94.8839 7.80917C94.8839 7.92149 94.9367 8.02602 95.0243 8.09467L96.2047 8.60481L95.5528 9.68598C95.531 9.76553 95.4592 9.82012 95.3765 9.82012C95.3765 9.82012 93.9887 9.856 93.304 9.88408C92.0207 9.9356 89.1624 11.5035 87.0557 16.0122C84.9861 20.4398 84.6464 21.1777 84.6464 21.1777C84.6028 21.2619 84.5136 21.3149 84.4184 21.3103L82.4961 21.3165C82.3775 21.3165 82.2512 21.4117 82.2011 21.5193L79.2117 29.9954C79.1621 30.103 79.1915 30.2652 79.2694 30.3558L81.356 31.6615C81.4136 31.7099 81.4387 31.7863 81.4213 31.8581L80.3316 35.0797C80.3175 35.1515 80.2909 35.2217 80.2534 35.2857L78.8079 36.5603C78.7704 36.593 78.7361 36.6336 78.7159 36.6788C78.705 36.7038 78.6957 36.7303 78.6876 36.7568L76.6979 41.8598C76.6717 41.9503 76.589 42.0113 76.4954 42.0113L75.3787 42.0174C75.0979 42.0174 74.8643 42.2343 74.8393 42.5135L74.1716 50.141C74.1595 50.2751 74.1422 50.4093 74.1188 50.5434L73.5919 53.5701C73.5713 53.6404 73.5326 53.7026 73.4809 53.7543L71.6223 55.1754C70.7707 55.9899 69.6294 57.4764 69.071 58.5139L62.8803 71.5923C62.7306 71.8699 62.6104 72.3491 62.6181 72.6659L63.0578 73.4505C63.0643 73.7313 62.9517 74.9701 62.8226 75.2194L60.7486 78.8485C60.7018 78.9374 60.6985 79.042 60.7393 79.1337L60.8422 79.3693L61.1524 79.9887L67.4476 79.9984C67.8377 80.0339 68.2694 79.5333 68.2819 78.9968L68.6236 74.6751L68.5344 74.0246L80.5374 59.918C80.8509 59.5358 81.2765 58.8618 81.4899 58.4157L87.2098 45.785C87.2772 45.6465 87.397 45.5402 87.5438 45.4917L87.9053 45.3749C88.1252 45.303 88.3656 45.3733 88.5137 45.5511C89.0143 46.1535 90.1915 48.1547 90.7652 48.9895C91.2393 49.6824 93.5925 53.0909 94.62 54.2145C94.9041 54.5232 95.7787 54.8743 96.1704 55.1131C96.2983 55.1911 96.3403 55.3564 96.2669 55.4861L92.8393 61.5139L91.3252 68.6327C91.2723 68.7984 91.2316 68.9697 91.2066 69.1414L89.8361 74.0852C89.8454 74.7095 89.3665 75.0372 89.3278 75.7733L88.8288 79.3867C88.8223 79.4974 88.9111 79.5911 89.022 79.5911L97.4909 79.638H97.4973C97.5082 79.638 98.0944 79.6299 98.4406 79.6157C98.5063 79.6129 98.6185 79.602 98.6919 79.5927C99.8207 79.4489 100.593 79.2945 101.118 79.1168C101.142 79.1091 101.165 79.101 101.188 79.0917C101.553 78.9624 101.79 78.8186 101.943 78.6598C102.232 78.3584 102.565 77.9887 102.615 77.5131C102.617 77.4941 102.619 77.4772 102.62 77.4582C102.62 77.4473 102.62 77.4347 102.621 77.4238C102.621 77.3976 102.621 77.3725 102.621 77.3458C102.621 77.343 102.621 77.3382 102.621 77.3349C102.621 77.3115 102.619 77.2881 102.615 77.2663C102.604 77.1713 102.583 77.0994 102.558 77.0416C102.558 77.0416 102.558 77.0416 102.558 77.0404C102.558 77.0388 102.556 77.0372 102.554 77.0355C102.547 77.017 102.537 77.0012 102.528 76.9855C102.522 76.9762 102.517 76.9669 102.509 76.9576C102.461 76.8905 102.414 76.8654 102.408 76.8622C102.385 76.8485 102.36 76.836 102.333 76.8267L98.4002 75.6392C98.1477 75.5612 97.9278 75.4052 97.7717 75.1931L96.7159 73.6299C96.6646 73.5208 96.688 73.3895 96.7736 73.3055L98.8307 71.2756C98.9009 71.2085 98.9553 71.1261 98.9912 71.0356L105.327 56.0756C105.623 55.1257 105.525 54.057 105.327 52.9273C105.18 52.0925 103.046 48.5059 102.487 47.5151C101.996 46.6416 98.9335 41.2796 98.207 40.0097C98.1243 39.8661 98.0165 39.7382 97.881 39.6446C97.7842 39.5775 97.689 39.4917 97.6111 39.4012C97.5332 39.3107 97.4772 39.2046 97.4457 39.0892L97.204 35.3652C97.1822 35.2841 97.2383 35.203 97.3226 35.1967L98.4252 35.1047C98.5297 35.0954 98.6233 35.0345 98.6717 34.9425L102.489 27.7613C102.542 27.663 102.539 27.5429 102.481 27.4477L101.7 26.4789C101.647 26.39 101.645 26.2777 101.697 26.1871L102.866 24.9219C102.915 24.8345 103.024 24.8049 103.111 24.8533L106.221 26.6084C106.409 26.7145 106.623 26.7769 106.84 26.7769C107.702 26.7706 109.123 26.2605 109.862 25.808C110.057 25.6879 110.217 25.5179 110.323 25.3151L111.849 21.7471C111.869 21.7019 111.936 21.7081 111.945 21.7565L112.371 23.7409C112.399 23.8657 112.508 23.9359 112.633 23.9078L117.124 22.9078C117.243 22.8813 117.316 22.7643 117.291 22.6457L116.232 18.1667C116.218 18.1058 116.229 18.0419 116.263 17.9888L116.7 17.3102C116.754 17.2259 116.795 17.1339 116.82 17.0387L117.349 14.6221C117.362 14.5597 117.417 14.5145 117.481 14.5145L129.905 14.5301C130.079 14.5301 130.215 14.3959 130.215 14.2196V12.1072C130.215 12.0682 130.248 12.0355 130.287 12.0355H135.077C135.161 12.0355 135.232 11.9668 135.232 11.881V10.9294C135.232 10.8451 135.163 10.7749 135.077 10.7749H130.285L130.29 10.7827Z" fill="#030303"/>
</g>
<defs>
<clipPath id="clip0_8_786">
<path d="M0 22C0 9.84973 9.84974 0 22 0H188V58C188 70.1503 178.15 80 166 80H0V22Z" fill="white"/>
</clipPath>
</defs>
</svg>
