<svg width="204" height="56" viewBox="0 0 204 56" fill="none" xmlns="http://www.w3.org/2000/svg">
<path d="M180.622 30.7287L180.12 32.006L179.622 30.7287H179.112V32.5306H179.442V31.1251L179.989 32.5306H180.238L180.785 31.1251V32.5306H181.152V30.7287H180.622ZM177.252 30.7287V31.013H177.815V32.5306H178.17V31.013H178.728V30.7287H177.252ZM57.2914 30.7327H51.5182L52.7422 33.6358L42.7013 55.6111H49.4782L50.3594 53.5009L60.1514 51.6749L61.8773 55.6111H68.6501L57.2914 30.7327ZM52.8442 47.5946H52.8115L55.5288 41.0877L57.9768 46.6376L52.8442 47.5946ZM95.1905 0.0720768V24.9505H88.7074V12.2891L83.028 18.9081H82.5547L76.908 12.2891V24.9505H70.38V0.0720768H74.1866L82.824 10.7715L91.6531 0.0720768H95.1905ZM204 0.0720768L201.34 5.89827H193.106V29.5634L186.456 30.7287V5.90228H177.912L179.112 8.80937V24.9505H172.474V14.7036L163.93 16.3053V24.9505H157.304V0.0720768H163.93V10.6073L172.474 9.00557V0.0720768H204ZM115.582 30.7287V36.5589H108.022V55.6111H101.364V36.5589H95.0273L92.363 30.7287H115.582ZM104.929 5.90228V9.81844H114.905L112.306 15.5085H104.929V24.9505H98.328V0.0720768H115.574V5.90228H104.929ZM57.4097 0.0720768H51.6365L52.8605 2.97917L42.8074 24.9505H49.5883L50.4696 22.8243L60.2616 20.9983L62.016 24.9505H68.7888L57.4097 0.0720768ZM52.9666 16.934H52.9339L55.6512 10.4311L58.0788 15.977L52.9666 16.934ZM31.416 5.90228V9.81844H41.3957L38.76 15.5085H31.416V19.1123H42.073L39.3883 24.9505H24.8023V8.50504L25.9937 5.90228H17.544V30.7287L10.8854 29.5274V5.90228H2.66424L0 0.0720768H42.0526V5.90228H31.416ZM153.865 13.0659V24.9505L148.222 23.9775C146.109 25.1547 144 25.6272 141.074 25.6272C133.628 25.6272 128.349 20.3416 128.349 12.8136C128.349 5.28562 133.628 0 141.074 0C147.447 0 151.654 3.41563 153.188 8.62117H146.354C145.79 7.83402 145.035 7.19777 144.157 6.77042C143.279 6.34308 142.306 6.13823 141.327 6.17456C137.602 6.17456 135.109 8.79735 135.109 12.8096C135.109 16.8219 137.602 19.4407 141.327 19.4407C144.073 19.4407 147.361 17.839 147.361 13.0539H153.869L153.865 13.0659ZM92.8282 46.7537C91.6858 52.3597 87.4426 56.0476 80.4494 55.9995C72.9871 55.9475 67.7035 50.7059 67.7035 43.1859C67.7035 35.6659 72.9871 30.3723 80.4494 30.3723C86.8918 30.3723 91.1268 33.856 92.6282 39.1496H85.831C84.7579 37.5119 82.9546 36.5549 80.7024 36.5549C76.9692 36.5549 74.4722 39.1857 74.4722 43.2019C74.4722 47.2182 76.9692 49.849 80.7024 49.849C83.1912 49.849 85.117 48.6878 86.1329 46.7857L92.8282 46.7537ZM48.0216 30.7287L45.3614 36.5589H39.0211V55.6111H32.3626V36.5589H24.8023V30.7287H48.0216ZM167.647 40.2908C174.991 42.0928 178.382 43.4182 178.382 48.0431C178.382 52.668 175.207 55.9995 167.1 55.9995C158.916 55.9995 155.766 51.8671 155.766 46.7537H162.18C162.18 49.1843 163.812 50.6178 167.1 50.6178C169.626 50.6178 171.429 49.7249 171.429 48.4155C171.429 47.2142 169.41 46.6656 166.533 45.9048C159.626 44.0869 156.476 42.4732 156.476 37.8963C156.476 34.2404 158.961 30.3282 167.113 30.3282C175.265 30.3282 177.582 34.2404 177.582 38.4689H171.197C171.197 36.9032 170.238 35.6659 167.117 35.6659C163.996 35.6659 163.322 36.8272 163.322 37.8002C163.322 39.0415 164.803 39.5701 167.664 40.2708M153.477 46.7537C152.335 52.3597 148.088 56.0476 141.099 55.9995C133.636 55.9475 128.349 50.7059 128.349 43.1859C128.349 35.6659 133.653 30.3723 141.099 30.3723C147.541 30.3723 151.772 33.856 153.277 39.1496H146.472C145.395 37.5119 143.616 36.5549 141.339 36.5549C137.61 36.5549 135.113 39.1857 135.113 43.2019C135.113 47.2182 137.61 49.849 141.339 49.849C143.828 49.849 145.758 48.6878 146.77 46.7857L153.477 46.7537ZM118.728 0.0720768H125.354V24.9505H118.728V0.0720768ZM118.728 30.7327H125.354V55.6111H118.728V30.7327Z" fill="white"/>
</svg>
