<svg width="76" height="145" viewBox="0 0 76 145" fill="none" xmlns="http://www.w3.org/2000/svg">
<path d="M1.16228 2L3.92105 6.94056L8.46491 17.1877L17.5526 39.1457L21.9342 46.6481L22.5833 47.014L23.0702 46.4651V43.1714L19.8245 28.5327L15.2807 12.796L15.7675 12.2471H35.0789V62.5677L35.4035 63.2996L34.7544 62.9336L33.4561 60.0059L29.2368 53.2355L26.8026 51.4056C26.0453 51.6496 25.7748 52.4426 25.9912 53.7844L27.614 61.1038L32.807 77.5723L57.1491 143.812L55.0394 141.8L54.0657 141.068L44.978 131.919L40.1096 128.259L38.3245 127.527L34.1052 115.267L29.8859 105.02L27.2895 99.8964L25.8289 98.2495C25.3529 98.0787 25.1906 98.2617 25.3421 98.7985L25.0175 99.8964L28.2631 114.169L32.1579 127.161H9.60087L9.43859 126.612L14.307 115.633L14.4693 98.6155L20.4737 112.705L23.2324 116.548L23.7193 115.633L23.3947 114.535L22.7456 109.412L22.0965 107.948L20.4737 99.8964L15.9298 84.1598L14.9561 79.4022L11.386 68.0572L9.76315 61.4698V59.6399L10.4123 60.0059L18.5263 77.9383L22.9079 85.4406L23.8816 85.8066C24.4874 85.5138 24.6497 84.7209 24.3684 83.4278C23.2649 77.5723 21.8585 72.0828 20.1491 66.9593L11.7105 41.3415V40.2436L9.43859 34.0222L2.94737 12.0641L1 4.01282L1.16228 2Z" fill="#030303" stroke="#030303"/>
<path d="M49.0352 104.837H74.8378L75 105.386L69.4825 126.795H56.6623L56.5001 126.246L49.0352 104.837Z" fill="#030303" stroke="#030303"/>
</svg>
